# xmcd CD database file
#
# Track frame offsets:
#	150
#	58893
#	89951
#	132164
#	156866
#	190684
#	231963
#
# Disc length: 3478 seconds
#
# Revision: 0
# Processed by: cddbd v1.5.2PL0 Copyright (c) Steve Scherf et al.
# Submitted via: CDex 1.51
#
DISCID=610d9407
DTITLE=Dan Gibson and Ron Allen - Mellow: Relaxation For A New Generation
DYEAR=2003
DGENRE=New Age
TTITLE0=Retreat To Calm
TTITLE1=Floating Euphoria
TTITLE2=Meditation On Music
TTITLE3=Cadence Of The Cove
TTITLE4=Delicate Rain
TTITLE5=Peaceful Ascent
TTITLE6=The Clearest Morning
EXTD=YEAR: 2003
EXTT0=
EXTT1=
EXTT2=
EXTT3=
EXTT4=
EXTT5=
EXTT6=
PLAYORDER=
